<?xml version="1.0" encoding="UTF-8"?>
<svg version="1.1" xmlns="http://www.w3.org/2000/svg" width="1000" height="537">
<path d="M0 0 C1.08818013 0.00027654 1.08818013 0.00027654 2.19834369 0.00055867 C2.96378401 -0.00311801 3.72922433 -0.0067947 4.51785982 -0.0105828 C7.10312844 -0.02166493 9.68835694 -0.0254713 12.27364582 -0.02927226 C14.11973173 -0.0355341 15.96581636 -0.04218065 17.8118996 -0.04918498 C22.8458076 -0.06663472 27.87970607 -0.07716014 32.91363686 -0.08539051 C36.0621138 -0.09053821 39.21058777 -0.09661442 42.35906261 -0.10290164 C52.21875147 -0.12197515 62.0784328 -0.13619486 71.93813658 -0.14451361 C83.30022676 -0.15425842 94.66212068 -0.18049649 106.02414179 -0.2210145 C114.81330059 -0.25127428 123.60240352 -0.26599228 132.39161336 -0.26929462 C137.63592381 -0.27163627 142.88002514 -0.28047893 148.12427944 -0.30575579 C153.0712594 -0.32921063 158.01789528 -0.33320046 162.96491665 -0.32299441 C164.76911041 -0.32250294 166.57332209 -0.32870683 168.3774628 -0.34255046 C187.4487451 -0.48055009 205.691205 2.48210671 219.91012043 16.46022969 C231.10576621 28.42069431 236.09108827 42.40692018 236.08962482 58.78704244 C235.49731309 70.73755731 232.29914904 81.89131078 228.93355793 93.28444844 C228.41778103 95.05681012 227.90287713 96.82942604 227.38877338 98.60227376 C226.00596192 103.36237721 224.61174614 108.11906905 223.21536869 112.87520772 C221.7565635 117.85141522 220.30841557 122.83072061 218.85958332 127.80983907 C217.06115758 133.98798916 215.26167222 140.16582262 213.45743793 146.34227926 C209.25952445 160.71365045 205.09190498 175.09351251 200.94527668 189.47976094 C200.38458572 191.4242396 199.82387628 193.36871292 199.26314777 195.31318074 C197.1155486 202.76125737 194.96849337 210.20949045 192.82265705 217.65807515 C191.58215913 221.96334208 190.33968633 226.26803456 189.09575695 230.57231122 C188.64030303 232.14956917 188.18555337 233.72703067 187.73154873 235.30470639 C187.11503246 237.44690868 186.49615882 239.5884158 185.87667316 241.72976094 C185.53095768 242.92834737 185.18524219 244.1269338 184.82905048 245.36184102 C183.97262043 248.14772969 183.97262043 248.14772969 182.97262043 250.14772969 C158.32841218 250.24135573 133.68423077 250.31179826 109.03988022 250.35497838 C97.59593154 250.37556454 86.15209367 250.40360943 74.70821613 250.44948751 C64.72855739 250.48947636 54.74897893 250.51519116 44.76924229 250.52408367 C39.48972454 250.52927806 34.21043638 250.54140388 28.93099254 250.57064992 C23.95121419 250.59800973 18.97175774 250.60613353 13.99191135 250.60016042 C12.17439179 250.60125153 10.35686029 250.60908192 8.53940624 250.62455159 C-11.17668515 250.78399077 -28.8399995 247.02783743 -43.55081707 232.84694844 C-55.53248416 219.78806523 -58.94589933 203.98068635 -58.22125775 186.74627095 C-57.93396601 182.89571149 -57.16532284 179.27463313 -56.23050457 175.53444844 C-56.01761791 174.66358098 -55.80473126 173.79271352 -55.58539349 172.89545614 C-51.60277776 157.0674852 -46.8252625 141.43532976 -42.2287727 125.77787191 C-40.83327637 121.01983455 -39.44377137 116.26004946 -38.05423504 111.50026876 C-37.77547842 110.54544921 -37.4967218 109.59062967 -37.20951802 108.60687619 C-36.64500333 106.67321561 -36.08051017 104.73954874 -35.51603848 102.8058756 C-34.66773508 99.90071303 -33.81876951 96.99574463 -32.96967083 94.09081441 C-27.64658479 75.87432166 -22.38983356 57.63899883 -17.15237957 39.39772969 C-16.95235081 38.70107324 -16.75232205 38.00441678 -16.54623181 37.28664953 C-16.15003769 35.90679001 -15.75384824 34.52692915 -15.35766369 33.14706689 C-14.79111542 31.17410513 -14.22436793 29.20120071 -13.65756756 27.22831136 C-12.97965799 24.86816911 -12.30231615 22.50786367 -11.62570721 20.14734823 C-10.76399275 17.14618135 -9.89735973 14.14650992 -9.02737957 11.14772969 C-8.74618267 10.17348043 -8.46498577 9.19923116 -8.17526776 8.19545919 C-7.90845196 7.28477681 -7.64163616 6.37409444 -7.36673504 5.43581563 C-7.01480587 4.22873952 -7.01480587 4.22873952 -6.65576702 2.99727803 C-5.42062985 -0.63813177 -3.55290554 0.02421873 0 0 Z M12.97262043 47.14772969 C4.4238704 58.12311934 -0.33874609 71.19104315 0.97262043 85.14772969 C2.69471824 92.29547304 6.02460229 97.77965387 11.97262043 102.14772969 C18.60952149 105.82493163 24.35096228 107.26605663 31.92501301 107.30544454 C32.61661014 107.31052526 33.30820728 107.31560598 34.02076191 107.32084066 C35.5190586 107.3315192 37.017371 107.34014919 38.51569027 107.34695989 C40.89136572 107.35878775 43.26686256 107.37825086 45.64246601 107.40007955 C52.39576714 107.46156181 59.14904899 107.51568687 65.90255207 107.54909688 C70.03758315 107.57010083 74.17228627 107.6054487 78.30712932 107.64985448 C79.87826837 107.66396825 81.44946542 107.67272644 83.02066463 107.67590886 C85.22480438 107.68084564 87.42808138 107.7040726 89.63204426 107.73122579 C90.88350742 107.73931264 92.13497059 107.74739949 93.42435688 107.7557314 C97.60719446 108.21783495 100.24218098 109.22240075 103.97262043 111.14772969 C106.76585597 114.72656274 107.18938989 117.61282589 106.97262043 122.02272969 C106.3648385 126.64746118 104.74375273 129.80406805 102.03121418 133.55397969 C100.78819178 135.10651265 100.78819178 135.10651265 100.97262043 137.14772969 C95.37566165 140.1794157 90.02958929 142.18824066 83.69918293 142.73757344 C82.81053547 142.81741475 81.92188801 142.89725606 81.00631183 142.9795168 C80.33519367 143.03502706 79.66407551 143.09053731 78.97262043 143.14772969 C79.15437824 142.55758077 79.33613605 141.96743184 79.52340168 141.35939962 C80.34413039 138.68598107 81.15844182 136.01064995 81.97262043 133.33522969 C82.2587923 132.40646016 82.54496418 131.47769063 82.83980793 130.52077657 C83.11051105 129.62810079 83.38121418 128.73542501 83.66012043 127.81569844 C83.91148762 126.99351827 84.1628548 126.17133809 84.42183918 125.32424337 C85.0952822 123.03719603 85.0952822 123.03719603 84.97262043 120.14772969 C77.38262043 120.14772969 69.79262043 120.14772969 61.97262043 120.14772969 C60.98262043 123.38585469 59.99262043 126.62397969 58.97262043 129.96022969 C58.65937824 130.97705831 58.34613605 131.99388692 58.02340168 133.04152852 C57.77976887 133.84614522 57.53613605 134.65076192 57.28512043 135.47976094 C57.03375324 136.30194112 56.78238605 137.1241213 56.52340168 137.97121602 C55.84995865 140.25826336 55.84995865 140.25826336 55.97262043 143.14772969 C31.55262043 143.14772969 7.13262043 143.14772969 -18.02737957 143.14772969 C-20.00737957 150.40772969 -21.98737957 157.66772969 -24.02737957 165.14772969 C-10.04007404 165.23833234 3.94703451 165.31161969 17.93456787 165.35497838 C24.43051784 165.37579516 30.9262555 165.40400483 37.42208332 165.44948751 C43.69853576 165.49315589 49.97478481 165.51691118 56.25137752 165.52723867 C58.63820892 165.53459243 61.02503 165.548952 63.4117741 165.57064992 C81.09972205 165.86925172 81.09972205 165.86925172 97.97262043 161.14772969 C99.3446487 160.58049184 99.3446487 160.58049184 100.74439472 160.00179464 C113.84128943 154.35493401 123.55019487 142.60853926 128.97262043 129.69460469 C132.26564276 121.30768845 131.97262043 117.1822414 131.97262043 107.14772969 C153.42262043 107.14772969 174.87262043 107.14772969 196.97262043 107.14772969 C198.95262043 99.88772969 200.93262043 92.62772969 202.97262043 85.14772969 C199.85765377 85.13893033 199.85765377 85.13893033 196.67975849 85.12995321 C177.12410233 85.07329647 157.5685568 85.00022198 138.01301712 84.91201478 C127.9589535 84.86705992 117.90492527 84.8276445 107.85079426 84.80129415 C99.08704367 84.77831161 90.32340512 84.74491064 81.5597434 84.69902813 C76.91996203 84.67509943 72.2802916 84.65636832 67.64044994 84.65011579 C63.27130872 84.64406337 58.90245136 84.62405778 54.53341526 84.59345418 C52.93188108 84.58467649 51.33030981 84.58095082 49.72875255 84.58272153 C47.53696484 84.58437936 45.34603729 84.56763304 43.15436786 84.54645711 C41.92930499 84.54184815 40.70424211 84.53723918 39.44205612 84.53249055 C35.2881179 84.07181828 32.67232154 83.08199271 28.97262043 81.14772969 C25.98494599 76.80202142 25.71846901 73.90482 26.41012043 68.71022969 C27.8250417 62.42935968 30.57438107 57.67255548 35.78121418 53.80397969 C40.12761134 51.18679431 44.00921478 50.03642467 49.02224201 49.98951131 C49.81867115 49.97972249 50.61510029 49.96993367 51.43566364 49.95984823 C52.30025196 49.95409276 53.16484028 49.9483373 54.05562824 49.94240743 C55.43175785 49.92755803 55.43175785 49.92755803 56.83568805 49.91240865 C59.865681 49.88084128 62.89568961 49.85605499 65.92574543 49.83132344 C68.02753585 49.81074981 70.12932217 49.78975323 72.23110431 49.76835042 C77.761405 49.71317207 83.29174276 49.66374407 88.82210773 49.61550313 C94.46606218 49.56525721 100.10996281 49.50958727 105.75387043 49.45437032 C116.82674112 49.34684055 127.89965855 49.24538403 138.97262043 49.14772969 C139.97708147 45.8574074 140.97542799 42.56526148 141.97262043 39.27272969 C142.2587923 38.33558126 142.54496418 37.39843282 142.83980793 36.43288594 C143.11051105 35.53698751 143.38121418 34.64108907 143.66012043 33.71804219 C143.91148762 32.8906252 144.1628548 32.06320821 144.42183918 31.21071798 C145.05860286 29.18155123 145.05860286 29.18155123 144.97262043 27.14772969 C132.54997513 27.05471922 120.12741378 26.98380767 107.70449013 26.94048101 C101.93493571 26.91967792 96.16562095 26.89149401 90.39620441 26.84597188 C84.82000566 26.80225367 79.24403627 26.77853796 73.66767925 26.76822072 C71.54878805 26.76087576 69.42990825 26.74653376 67.31111568 26.72480947 C45.5487363 26.51071377 28.40989885 30.53404903 12.97262043 47.14772969 Z M124.23824543 152.86867696 C121.12988761 157.36742199 117.53200864 159.73476636 112.99215168 162.75710469 C112.32570637 163.21601094 111.65926105 163.67491719 110.97262043 164.14772969 C110.97262043 164.47772969 110.97262043 164.80772969 110.97262043 165.14772969 C129.78262043 165.14772969 148.59262043 165.14772969 167.97262043 165.14772969 C172.06471042 154.30801447 172.06471042 154.30801447 173.97262043 143.14772969 C168.33555285 142.82371622 162.7040074 142.58935097 157.05977863 142.43361837 C155.14540631 142.36866156 153.23166855 142.28024875 151.31954426 142.1670168 C138.76679451 141.44288272 131.36024459 141.82504154 124.23824543 152.86867696 Z M45.97262043 176.14772969 C39.9952222 193.18477065 39.9952222 193.18477065 42.53512043 210.58522969 C46.3747168 216.94875655 51.48394259 220.35119752 58.46314281 222.55144101 C62.7595438 223.57232889 66.96110114 223.53977025 71.35763019 223.48830587 C72.85189785 223.48896299 72.85189785 223.48896299 74.37635273 223.48963338 C77.63911648 223.48755861 80.9013537 223.46428951 84.16402668 223.44069844 C86.4380259 223.43509783 88.71202876 223.43082993 90.9860329 223.42783529 C96.94876717 223.41642323 102.91127952 223.38698735 108.87392658 223.35372335 C114.96734088 223.32294391 121.0607913 223.30931315 127.15426105 223.29421407 C139.09381126 223.26211418 151.03319733 223.21096194 162.97262043 223.14772969 C163.97966403 220.04580329 164.97702848 216.94084872 165.97262043 213.83522969 C166.2587923 212.95415548 166.54496418 212.07308126 166.83980793 211.16530782 C167.11051105 210.31774923 167.38121418 209.47019063 167.66012043 208.59694844 C167.91148762 207.8166628 168.1628548 207.03637716 168.42183918 206.23244649 C169.10033796 204.0236912 169.10033796 204.0236912 168.97262043 201.14772969 C167.75375141 201.13964284 166.53488239 201.13155599 165.27907795 201.12322408 C153.80163685 201.04579494 142.32431476 200.95806375 130.84702915 200.86020261 C124.94620857 200.81022153 119.04540605 200.76389153 113.14449543 200.72585469 C107.45155935 200.68902496 101.75877373 200.6426711 96.06596607 200.58966619 C93.89225121 200.57110998 91.71850409 200.55600658 89.54474109 200.54438573 C86.50394203 200.52754445 83.46348845 200.49851416 80.42281574 200.46657735 C79.52082447 200.46441716 78.6188332 200.46225698 77.68950886 200.46003133 C76.8594231 200.44886785 76.02933735 200.43770437 75.17409748 200.4262026 C74.45509895 200.42067184 73.73610042 200.41514108 72.99531406 200.40944272 C70.61484699 200.10143797 69.01162696 199.40245757 66.97262043 198.14772969 C64.63227932 193.46704748 66.00087877 188.64617919 67.47262043 183.89772969 C67.75105793 183.06757344 68.02949543 182.23741719 68.31637043 181.38210469 C69.11352195 179.05611924 69.11352195 179.05611924 68.97262043 176.14772969 C61.38262043 176.14772969 53.79262043 176.14772969 45.97262043 176.14772969 Z " fill="#F2E630" transform="translate(447.0273795723915,50.85227030515671)"/>
<path d="M0 0 C0.72363235 -0.0049649 1.44726471 -0.00992981 2.19282532 -0.01504517 C4.5982863 -0.0297065 7.00368127 -0.03647653 9.40917969 -0.04199219 C11.07729088 -0.04774188 12.74540205 -0.05349963 14.41351318 -0.05926514 C17.91744292 -0.06978745 21.42134964 -0.07562155 24.92529297 -0.07910156 C29.4122796 -0.08457857 33.89896158 -0.10858424 38.38585281 -0.13707352 C41.834563 -0.15571455 45.28320017 -0.16090635 48.73195648 -0.16243744 C50.38574635 -0.16546291 52.03953497 -0.17348793 53.69327545 -0.18662262 C56.01059449 -0.20370857 58.32717449 -0.20179658 60.64453125 -0.1953125 C61.96277893 -0.19895813 63.28102661 -0.20260376 64.63922119 -0.20635986 C70.418977 0.41075829 70.418977 0.41075829 73.08105469 3.16113281 C74.31651115 9.86266262 72.57184632 16.48564658 70.78613281 22.92529297 C70.42037392 24.30273682 70.42037392 24.30273682 70.04722595 25.70800781 C69.24733496 28.70869354 68.43001153 31.70432047 67.61230469 34.70019531 C67.05071103 36.79311467 66.49022158 38.8863306 65.93078613 40.97982788 C64.46218494 46.46376038 62.97870379 51.94355794 61.49200439 57.42260742 C59.97485573 63.02441837 58.47192934 68.63004078 56.96777344 74.23535156 C54.01937588 85.21438353 51.05392729 96.18870281 48.08105469 107.16113281 C38.84105469 107.16113281 29.60105469 107.16113281 20.08105469 107.16113281 C23.64824573 91.30482518 27.92220171 75.6459645 32.17797852 59.96429443 C32.97272262 57.03312113 33.7646961 54.10120233 34.55659771 51.16926003 C35.50502004 47.65843084 36.45511296 44.1480544 37.40527344 40.63769531 C37.58478735 39.97385456 37.76430126 39.31001381 37.94925499 38.62605667 C38.45539153 36.75549774 38.96289276 34.88530822 39.47045898 33.01513672 C39.75817673 31.9538858 40.04589447 30.89263489 40.34233093 29.79922485 C40.87265118 27.90537263 41.45912898 26.02690992 42.08105469 24.16113281 C32.84105469 24.49113281 23.60105469 24.82113281 14.08105469 25.16113281 C6.82105469 52.22113281 -0.43894531 79.28113281 -7.91894531 107.16113281 C-17.15894531 107.16113281 -26.39894531 107.16113281 -35.91894531 107.16113281 C-30.12947591 84.487459 -24.22777612 61.84665313 -18.17724609 39.24121094 C-17.10350235 35.22894344 -16.03459711 31.21540176 -14.96664429 27.20158958 C-14.13170978 24.06646175 -13.29372398 20.93215577 -12.45483398 17.79808426 C-12.05820952 16.31435063 -11.66268845 14.83032158 -11.26831055 13.34598923 C-10.72668153 11.30872259 -10.1808108 9.27264057 -9.63378906 7.23681641 C-9.32562256 6.08329681 -9.01745605 4.92977722 -8.69995117 3.74130249 C-7.22334931 -1.13687262 -4.79393208 0.02489077 0 0 Z " fill="#EFE430" transform="translate(449.9189453125,347.8388671875)"/>
<path d="M0 0 C1.09815285 -0.00021904 1.09815285 -0.00021904 2.2184906 -0.0004425 C4.63169343 0.00025263 7.04481851 0.00802631 9.45800781 0.01586914 C11.13380898 0.01773474 12.80961069 0.01915797 14.4854126 0.02015686 C18.89127107 0.02397087 23.29709647 0.03379163 27.70294189 0.04486084 C32.20071973 0.05509896 36.69850293 0.05965963 41.19628906 0.06469727 C50.01791816 0.07541489 58.83952273 0.09247792 67.66113281 0.11352539 C66.28018819 3.71220567 64.83213762 6.47238283 62.43847656 9.50415039 C61.50745117 10.69137695 61.50745117 10.69137695 60.55761719 11.90258789 C59.91115234 12.71469727 59.2646875 13.52680664 58.59863281 14.36352539 C57.62313477 15.60489258 57.62313477 15.60489258 56.62792969 16.87133789 C51.8956888 22.87896941 51.8956888 22.87896941 50.66113281 24.11352539 C49.28062423 24.23550347 47.89415634 24.29121438 46.50854492 24.31884766 C45.62770737 24.33879288 44.74686981 24.3587381 43.83934021 24.37928772 C42.88205521 24.39600021 41.9247702 24.41271271 40.93847656 24.42993164 C39.96326553 24.45071274 38.9880545 24.47149384 37.98329163 24.49290466 C34.85514651 24.55850952 31.72691459 24.61733567 28.59863281 24.67602539 C26.48338931 24.71920023 24.36815472 24.76281416 22.25292969 24.80688477 C17.05575694 24.91420194 11.85849704 25.0159476 6.66113281 25.11352539 C6.01109656 27.32062522 5.36628536 29.52926431 4.72363281 31.73852539 C4.36398437 32.96829102 4.00433594 34.19805664 3.63378906 35.46508789 C2.77627309 38.68163375 2.14209297 41.82274539 1.66113281 45.11352539 C2.25359802 45.10464294 2.84606323 45.0957605 3.45648193 45.08660889 C9.62062944 44.99814243 15.78459674 44.93779413 21.94921875 44.89379883 C24.25007451 44.87367851 26.5508791 44.84637905 28.8515625 44.81176758 C32.15800598 44.76326927 35.46377367 44.74056061 38.77050781 44.72290039 C39.79980408 44.70225525 40.82910034 44.68161011 41.8895874 44.66033936 C48.86035558 44.65814715 48.86035558 44.65814715 52.34179688 46.63793945 C55.69589691 52.93153205 53.1601489 60.17852292 51.39550781 66.65258789 C51.16083801 67.53707611 50.92616821 68.42156433 50.68438721 69.33285522 C50.18826555 71.19141402 49.68710335 73.04863394 49.18115234 74.90454102 C48.41256612 77.73325023 47.66678123 80.56730743 46.92285156 83.40258789 C46.43593126 85.21545398 45.94769421 87.02796702 45.45800781 88.84008789 C45.23804138 89.68084869 45.01807495 90.5216095 44.79144287 91.3878479 C43.20615908 97.11535525 41.40731393 102.02276355 36.504776 105.75523376 C32.95223518 107.45213669 29.87631083 107.51326993 26.02514648 107.45410156 C25.27339142 107.45453964 24.52163635 107.45497772 23.74710083 107.45542908 C21.27416579 107.45334704 18.80191746 107.43004434 16.32910156 107.40649414 C14.60989248 107.40089609 12.8906786 107.39662698 11.17146301 107.39363098 C6.65535171 107.38219866 2.13953169 107.35274544 -2.37646484 107.31951904 C-6.98824117 107.28878334 -11.60006475 107.27511817 -16.21191406 107.26000977 C-25.25435947 107.22787413 -34.29658907 107.17669733 -43.33886719 107.11352539 C-40.75976837 103.18480394 -38.15441028 99.62964835 -34.96386719 96.17602539 C-31.88099896 92.90136474 -31.88099896 92.90136474 -29.13421631 89.35421753 C-27.12500318 86.56988838 -25.54316547 84.47869581 -22.18161011 83.45939636 C-19.62071071 83.2093238 -17.13816953 83.16986849 -14.56542969 83.21118164 C-13.64168549 83.19889023 -12.71794128 83.18659882 -11.76620483 83.17393494 C-8.83127745 83.14227691 -5.89887161 83.1584606 -2.96386719 83.17602539 C-0.96775015 83.16291221 1.02834894 83.14667027 3.02441406 83.12719727 C7.90385634 83.08640462 12.78160215 83.08849728 17.66113281 83.11352539 C18.47504536 80.53062947 19.2873121 77.94723542 20.09863281 75.36352539 C20.32873047 74.63391602 20.55882812 73.90430664 20.79589844 73.15258789 C21.01826172 72.44360352 21.240625 71.73461914 21.46972656 71.00415039 C21.6739624 70.35478516 21.87819824 69.70541992 22.08862305 69.03637695 C22.67283009 67.07423851 23.17923929 65.10302955 23.66113281 63.11352539 C22.81668106 63.12351814 22.81668106 63.12351814 21.95516968 63.13371277 C16.0826388 63.20021143 10.21021535 63.24538619 4.33740234 63.27832031 C2.14725396 63.29338345 -0.04286437 63.31383798 -2.23291016 63.33984375 C-5.38549222 63.37633528 -8.53767456 63.39327678 -11.69042969 63.40649414 C-12.66565582 63.421978 -13.64088196 63.43746185 -14.6456604 63.45341492 C-19.84257792 63.4546942 -24.06056681 63.42748693 -28.33886719 60.11352539 C-30.08260767 55.32311044 -28.90902448 51.09104056 -27.60839844 46.32836914 C-27.41670578 45.59082901 -27.22501312 44.85328888 -27.0275116 44.09339905 C-26.41326323 41.74284927 -25.78229911 39.39714489 -25.15136719 37.05102539 C-24.74603566 35.50246771 -24.34172972 33.95364121 -23.93847656 32.40454102 C-16.72752117 4.88558318 -16.72752117 4.88558318 -11.33886719 1.11352539 C-7.64745976 -0.19614583 -3.8665914 -0.02023726 0 0 Z " fill="#EFE330" transform="translate(757.3388671875,347.886474609375)"/>
<path d="M0 0 C0.7420015 -0.00029205 1.48400299 -0.00058411 2.24848938 -0.00088501 C4.68881122 0.00050276 7.12882362 0.01603765 9.5690918 0.03173828 C11.2658827 0.03547038 12.96267577 0.03831642 14.6594696 0.04031372 C19.11632277 0.04793466 23.57304472 0.06756988 28.02984619 0.08972168 C32.58132146 0.11021331 37.13281802 0.11932253 41.68432617 0.12939453 C50.60821181 0.15081726 59.53200025 0.18493459 68.45581055 0.22705078 C66.08299643 4.260493 63.45384241 7.97619907 60.58081055 11.66455078 C60.15928711 12.21175781 59.73776367 12.75896484 59.3034668 13.32275391 C58.03112203 14.9666856 56.7554807 16.60455933 55.45581055 18.22705078 C54.78638428 19.26756592 54.11695801 20.30808105 53.42724609 21.38012695 C51.10421573 24.13745438 49.41682362 24.69490014 45.84912109 25 C44.01401307 25.04078041 42.17800387 25.04955909 40.3425293 25.03173828 C38.88820244 25.05229782 38.88820244 25.05229782 37.40449524 25.07327271 C34.31696169 25.11057329 31.23103744 25.1068577 28.14331055 25.10205078 C26.0462802 25.12017746 23.94927115 25.14098005 21.85229492 25.16455078 C16.71986377 25.21640268 11.58848926 25.23148123 6.45581055 25.22705078 C5.78087713 27.45372843 5.11618011 29.68351055 4.45581055 31.91455078 C4.08456055 33.15591797 3.71331055 34.39728516 3.33081055 35.67626953 C2.56978399 38.76454248 2.3805639 41.09255767 2.45581055 44.22705078 C3.03574768 44.23291702 3.61568481 44.23878326 4.2131958 44.24482727 C10.24800267 44.30874999 16.2822757 44.39316662 22.31665039 44.48950195 C24.56885745 44.52276103 26.82114806 44.55078986 29.07348633 44.57348633 C32.310665 44.60701374 35.54707734 44.65932967 38.78393555 44.71533203 C39.79135803 44.72172195 40.79878052 44.72811188 41.83673096 44.73469543 C42.77740417 44.75448959 43.71807739 44.77428375 44.68725586 44.79467773 C45.51332336 44.80578079 46.33939087 44.81688385 47.19049072 44.82832336 C50.03879423 45.32966392 51.41694952 46.1859913 53.45581055 48.22705078 C54.93566701 54.27808879 52.79314225 61.01916401 51.19018555 66.86376953 C50.95551575 67.7468428 50.72084595 68.62991608 50.47906494 69.53974915 C49.98351487 71.39248885 49.48235496 73.24373646 48.97583008 75.09350586 C48.20620992 77.91308762 47.46079781 80.73831331 46.7175293 83.56494141 C46.23068467 85.3732715 45.74245053 87.1812282 45.25268555 88.98876953 C45.03271912 89.82639328 44.81275269 90.66401703 44.58612061 91.52702332 C42.99771649 97.24249235 41.19202854 102.14369995 36.29945374 105.86889648 C32.74691424 107.56562721 29.67092894 107.6267944 25.81982422 107.56762695 C25.06806915 107.56806503 24.31631409 107.56850311 23.54177856 107.56895447 C21.06884353 107.56687243 18.5965952 107.54356973 16.1237793 107.52001953 C14.40457021 107.51442148 12.68535633 107.51015237 10.96614075 107.50715637 C6.45002944 107.49572405 1.93420943 107.46627083 -2.58178711 107.43304443 C-7.19356344 107.40230873 -11.80538701 107.38864356 -16.41723633 107.37353516 C-25.45968173 107.34139952 -34.50191133 107.29022272 -43.54418945 107.22705078 C-42.61167715 105.97207708 -41.67750995 104.71833298 -40.74267578 103.46508789 C-40.22264481 102.76677353 -39.70261383 102.06845917 -39.16682434 101.34898376 C-36.64695771 98.05373345 -33.95028521 94.9211835 -31.23168945 91.78955078 C-30.42634766 90.8546582 -30.42634766 90.8546582 -29.60473633 89.90087891 C-25.7449583 85.42781963 -25.7449583 85.42781963 -24.54418945 84.22705078 C-21.44333724 84.06663885 -18.36231367 83.96741676 -15.2590332 83.91064453 C-14.32821426 83.88986343 -13.39739532 83.86908234 -12.43836975 83.84767151 C-9.45288763 83.78207147 -6.46731462 83.72324276 -3.48168945 83.66455078 C-1.46279969 83.62137549 0.55608074 83.57776153 2.57495117 83.53369141 C7.53514351 83.42637949 12.49542763 83.3251419 17.45581055 83.22705078 C19.32015026 78.42258989 20.94499126 73.7485792 22.14331055 68.72705078 C22.39467773 67.68548828 22.64604492 66.64392578 22.9050293 65.57080078 C23.08678711 64.79736328 23.26854492 64.02392578 23.45581055 63.22705078 C22.6113588 63.23704353 22.6113588 63.23704353 21.74984741 63.24723816 C15.87731654 63.31373682 10.00489308 63.35891158 4.13208008 63.3918457 C1.9419317 63.40690884 -0.24818664 63.42736337 -2.43823242 63.45336914 C-5.59081448 63.48986067 -8.74299682 63.50680217 -11.89575195 63.52001953 C-12.87097809 63.53550339 -13.84620422 63.55098724 -14.85098267 63.56694031 C-20.20386687 63.56825799 -23.88342571 63.18523685 -28.54418945 60.22705078 C-29.64117976 50.15441819 -26.7528179 40.81853036 -24.11914062 31.2097168 C-23.3551911 28.40905777 -22.62336848 25.60128994 -21.89379883 22.79150391 C-21.41067697 20.99216343 -20.92571429 19.19331598 -20.4387207 17.39501953 C-20.22391556 16.56366989 -20.00911041 15.73232025 -19.78779602 14.8757782 C-18.29237735 9.5369544 -16.55158915 6.11325071 -12.54418945 2.22705078 C-8.41372444 0.06985006 -4.56170557 -0.04735403 0 0 Z " fill="#EFE330" transform="translate(657.544189453125,347.77294921875)"/>
<path d="M0 0 C0.77251602 0.00359528 1.54503204 0.00719055 2.34095764 0.01089478 C3.55549622 0.01067574 3.55549622 0.01067574 4.79457092 0.01045227 C7.48380671 0.01115163 10.17297412 0.01894507 12.86219788 0.02676392 C14.72164878 0.02862802 16.58110018 0.03005196 18.44055176 0.03105164 C23.34458258 0.03487746 28.24858398 0.04470829 33.15260315 0.05575562 C38.15280255 0.06596836 43.15300669 0.07054896 48.1532135 0.07559204 C57.97158583 0.0863305 67.78993629 0.10340769 77.60829163 0.12442017 C75.0577697 4.6684458 72.53860556 8.67706198 69.17079163 12.68692017 C68.05897522 14.01916626 68.05897522 14.01916626 66.92469788 15.37832642 C66.16028381 16.28453735 65.39586975 17.19074829 64.60829163 18.12442017 C63.94861389 19.15897339 63.28893616 20.19352661 62.60926819 21.25942993 C60.92066313 23.27020471 59.99925764 24.03036299 57.42358398 24.65000916 C54.68890379 24.81924284 52.01479932 24.79883454 49.27626038 24.71035767 C48.28451309 24.70186798 47.29276581 24.6933783 46.27096558 24.68463135 C43.11145702 24.65111375 39.95452523 24.57583533 36.79579163 24.49942017 C34.65064626 24.46931854 32.50546079 24.44194309 30.36024475 24.41738892 C25.10871842 24.35132872 19.85868911 24.25099801 14.60829163 24.12442017 C14.52579163 25.17629517 14.44329163 26.22817017 14.35829163 27.31192017 C13.4120534 33.38361547 11.415445 39.25117171 9.60829163 45.12442017 C23.13829163 45.12442017 36.66829163 45.12442017 50.60829163 45.12442017 C46.60829163 62.12442017 46.60829163 62.12442017 45.60829163 63.12442017 C42.57851359 63.21313289 39.57162141 63.23961367 36.54188538 63.22207642 C35.63326248 63.22066147 34.72463959 63.21924652 33.78848267 63.2177887 C30.87421942 63.2121721 27.96003182 63.19961681 25.04579163 63.18692017 C23.07508961 63.1819073 21.10438639 63.17734403 19.13368225 63.17324829 C14.29185604 63.16219728 9.45008668 63.14492155 4.60829163 63.12442017 C4.49872131 63.71867798 4.389151 64.31293579 4.27626038 64.92520142 C4.11770569 65.7540686 3.959151 66.58293579 3.79579163 67.43692017 C3.64497131 68.23742798 3.494151 69.03793579 3.33876038 69.86270142 C2.26489425 74.65777207 0.90121026 79.38371849 -0.39170837 84.12442017 C17.75829163 84.12442017 35.90829163 84.12442017 54.60829163 84.12442017 C53.11929172 87.10241997 51.83052187 89.31737931 49.85829163 91.90957642 C49.33235413 92.60502563 48.80641663 93.30047485 48.26454163 94.01699829 C47.71797913 94.73307251 47.17141663 95.44914673 46.60829163 96.18692017 C45.52428376 97.61479374 44.4409246 99.0431601 43.35829163 100.47207642 C42.87876038 101.10121948 42.39922913 101.73036255 41.90516663 102.37857056 C40.75654683 103.92483941 39.67675923 105.52171876 38.60829163 107.12442017 C35.59642029 107.48518372 35.59642029 107.48518372 31.68006897 107.46499634 C30.96776627 107.46543442 30.25546356 107.4658725 29.52157593 107.46632385 C27.16218351 107.46423027 24.80349772 107.44087342 22.44422913 107.41738892 C20.8104135 107.41179496 19.17659284 107.40752392 17.54277039 107.40452576 C13.23868461 107.39306111 8.93490165 107.36358024 4.63093567 107.33041382 C0.24061683 107.29974768 -4.14975085 107.28602783 -8.54014587 107.27090454 C-17.15747247 107.23871187 -25.77455278 107.18749625 -34.39170837 107.12442017 C-31.75495396 95.61425975 -28.87097924 84.19644201 -25.76670837 72.80410767 C-25.33334825 71.20530989 -24.90024869 69.60644147 -24.46739197 68.00750732 C-23.34037608 63.84695516 -22.21008038 59.68730159 -21.07896423 55.52786255 C-19.71115918 50.49565189 -18.34727836 45.46237654 -16.98280334 40.42926216 C-15.9200362 36.50934158 -14.85674371 32.58956654 -13.79161072 28.67028809 C-13.59592499 27.94977831 -13.40023926 27.22926853 -13.19862366 26.48692513 C-12.81672549 25.08105784 -12.43447197 23.67528703 -12.05183411 22.2696209 C-11.10167145 18.77205207 -10.16527551 15.27151859 -9.25010681 11.76461792 C-8.97606522 10.71919421 -8.97606522 10.71919421 -8.69648743 9.65265083 C-8.19550031 7.73706606 -7.69850448 5.82043871 -7.20176697 3.90374756 C-5.86753949 -0.67401385 -4.52822057 0.00889573 0 0 Z " fill="#EFE330" transform="translate(548.3917083740234,347.8755798339844)"/>
<path d="M0 0 C27.39 0 54.78 0 83 0 C81.4018135 3.99546626 80.32698886 6.16129087 77.77734375 9.390625 C76.84631836 10.57785156 76.84631836 10.57785156 75.89648438 11.7890625 C75.25001953 12.60117187 74.60355469 13.41328125 73.9375 14.25 C72.96200195 15.49136719 72.96200195 15.49136719 71.96679688 16.7578125 C67.23455598 22.76544402 67.23455598 22.76544402 66 24 C64.58774954 24.0928726 63.17091066 24.11746772 61.75561523 24.11352539 C60.40432777 24.11341209 60.40432777 24.11341209 59.02574158 24.11329651 C58.04658279 24.10813522 57.06742401 24.10297394 56.05859375 24.09765625 C55.06118668 24.0962413 54.0637796 24.09482635 53.03614807 24.09336853 C49.83656876 24.08775114 46.63705831 24.07519571 43.4375 24.0625 C41.27408955 24.05748724 39.11067801 24.05292395 36.94726562 24.04882812 C31.63148675 24.03777607 26.31574829 24.02102104 21 24 C20.89042969 24.67804688 20.78085938 25.35609375 20.66796875 26.0546875 C20.43013672 27.45074219 20.43013672 27.45074219 20.1875 28.875 C20.03667969 29.77992188 19.88585937 30.68484375 19.73046875 31.6171875 C18.75299973 36.14386222 17.33071019 40.56429937 16 45 C29.53 45 43.06 45 57 45 C53 61 53 61 52 63 C38.47 63 24.94 63 11 63 C9.68 68.61 8.36 74.22 7 80 C5.79375997 84.67511664 4.57362209 89.34016761 3.3125 94 C3.00505859 95.155 2.69761719 96.31 2.38085938 97.5 C2.08630859 98.593125 1.79175781 99.68625 1.48828125 100.8125 C1.22571533 101.78832031 0.96314941 102.76414062 0.69262695 103.76953125 C0 106 0 106 -1 107 C-2.99964982 107.08758003 -5.0023611 107.10696576 -7.00390625 107.09765625 C-8.82631836 107.09282227 -8.82631836 107.09282227 -10.68554688 107.08789062 C-11.96494141 107.07951172 -13.24433594 107.07113281 -14.5625 107.0625 C-15.84576172 107.05798828 -17.12902344 107.05347656 -18.45117188 107.04882812 C-21.63416246 107.03699545 -24.81705102 107.01967354 -28 107 C-25.06792377 94.13881138 -21.77578657 81.39252013 -18.359375 68.65234375 C-17.82678631 66.65887725 -17.29442149 64.66535093 -16.76226807 62.67176819 C-15.37701615 57.48462385 -13.98877315 52.29828486 -12.59985352 47.11212158 C-10.92544439 40.85737854 -9.25484422 34.60161716 -7.58358765 28.34603119 C-5.05860384 18.89658114 -2.52885828 9.44841773 0 0 Z " fill="#EDE22F" transform="translate(202,348)"/>
<path d="M0 0 C26.4 0 52.8 0 80 0 C76 17 76 17 74 24 C67.07 24 60.14 24 53 24 C52.27876953 27.18849609 52.27876953 27.18849609 51.54296875 30.44140625 C48.49974926 43.54228471 44.95312066 56.52168783 41.48999023 69.51635742 C40.49827125 73.23767565 39.51077713 76.96010042 38.52445698 80.68285275 C37.75999107 83.56651581 36.99343256 86.44961928 36.22621727 89.33255196 C35.86077013 90.70673435 35.49595887 92.08108601 35.1317997 93.45561028 C34.62685565 95.36021275 34.11880377 97.26399048 33.6105957 99.16772461 C33.17901909 100.78957924 33.17901909 100.78957924 32.73872375 102.44419861 C32 105 32 105 31 107 C22.09 107 13.18 107 4 107 C4.72414595 101.93097835 5.61899265 97.2250631 6.94946289 92.32055664 C7.14468033 91.58801666 7.33989777 90.85547668 7.54103088 90.10073853 C8.18107141 87.70283337 8.82681388 85.30650462 9.47265625 82.91015625 C9.91998605 81.2387371 10.3669564 79.56722171 10.81358337 77.89561462 C11.98544104 73.51350916 13.16215422 69.13272204 14.33990479 64.75219727 C15.54270602 60.27504168 16.74088098 55.7966486 17.93945312 51.31835938 C20.28845899 42.54435835 22.64302594 33.77186388 25 25 C10.15 24.505 10.15 24.505 -5 24 C-4 15 -4 15 0 0 Z " fill="#EEE22F" transform="translate(346,348)"/>
<path d="M0 0 C9.24 0 18.48 0 28 0 C22.21053059 22.67367381 16.30883081 45.31447969 10.25830078 67.91992188 C9.18455704 71.93218938 8.1156518 75.94573106 7.04769897 79.95954323 C6.21276447 83.09467106 5.37477867 86.22897704 4.53588867 89.36304855 C4.13926421 90.84678218 3.74374313 92.33081124 3.34936523 93.81514359 C2.80773622 95.85241022 2.26186549 97.88849224 1.71484375 99.92431641 C1.40667725 101.077836 1.09851074 102.23135559 0.78100586 103.41983032 C0 106 0 106 -1 107 C-2.99964982 107.08758003 -5.0023611 107.10696576 -7.00390625 107.09765625 C-8.82631836 107.09282227 -8.82631836 107.09282227 -10.68554688 107.08789062 C-11.96494141 107.07951172 -13.24433594 107.07113281 -14.5625 107.0625 C-15.84576172 107.05798828 -17.12902344 107.05347656 -18.45117188 107.04882812 C-21.63416022 107.03699545 -24.81705762 107.02051068 -28 107 C-26.76626456 100.49896621 -25.32273357 94.1025562 -23.6015625 87.71411133 C-23.37039734 86.84607376 -23.13923218 85.97803619 -22.90106201 85.08369446 C-22.14535693 82.24900088 -21.38524424 79.4155105 -20.625 76.58203125 C-20.09430873 74.59533891 -19.56387684 72.60857727 -19.03369141 70.62174988 C-17.64318086 65.41401258 -16.24883221 60.20731024 -14.85375977 55.00079346 C-13.71669265 50.75451271 -12.58241346 46.50748965 -11.44827271 42.26042652 C-10.09148198 37.17986957 -8.73340247 32.09965748 -7.375 27.01953125 C-7.11761047 26.05677591 -6.86022095 25.09402058 -6.59503174 24.10209084 C-5.86352235 21.36711064 -5.13113653 18.63236678 -4.3984375 15.89770508 C-4.18435242 15.09701599 -3.97026733 14.2963269 -3.74969482 13.47137451 C-3.54789612 12.7189296 -3.34609741 11.96648468 -3.13818359 11.1912384 C-2.96564056 10.54698819 -2.79309753 9.90273798 -2.61532593 9.23896503 C-1.76714751 6.15272775 -0.87929076 3.07751766 0 0 Z " fill="#EFE330" transform="translate(302,348)"/>
</svg>
